<svg width="169" height="43" viewBox="0 0 169 43" fill="none" xmlns="http://www.w3.org/2000/svg">
<path d="M51.92 29V14.6H58.36C59.4 14.6 60.3067 14.78 61.08 15.14C61.8533 15.4867 62.4533 15.98 62.88 16.62C63.3067 17.26 63.52 18.0067 63.52 18.86C63.52 19.7 63.3067 20.44 62.88 21.08C62.4533 21.7067 61.8533 22.2 61.08 22.56C60.3067 22.9067 59.4 23.08 58.36 23.08H54.36V20.82H58.28C59.0133 20.82 59.5733 20.6533 59.96 20.32C60.36 19.9733 60.56 19.4933 60.56 18.88C60.56 18.2533 60.3667 17.78 59.98 17.46C59.5933 17.1267 59.0267 16.96 58.28 16.96H55V29H51.92ZM60.04 29L54.26 21.52H57.52L64.2 29H60.04ZM69.7539 29.2C68.6206 29.2 67.6339 28.98 66.7939 28.54C65.9539 28.0867 65.3006 27.46 64.8339 26.66C64.3806 25.86 64.1539 24.94 64.1539 23.9C64.1539 22.8467 64.3806 21.9267 64.8339 21.14C65.3006 20.34 65.9472 19.72 66.7739 19.28C67.6006 18.8267 68.5606 18.6 69.6539 18.6C70.7072 18.6 71.6206 18.8133 72.3939 19.24C73.1672 19.6667 73.7672 20.26 74.1939 21.02C74.6206 21.78 74.8339 22.6733 74.8339 23.7C74.8339 23.9133 74.8272 24.1133 74.8139 24.3C74.8006 24.4733 74.7806 24.64 74.7539 24.8H65.9139V22.82H72.3339L71.8139 23.18C71.8139 22.3533 71.6139 21.7467 71.2139 21.36C70.8272 20.96 70.2939 20.76 69.6139 20.76C68.8272 20.76 68.2139 21.0267 67.7739 21.56C67.3472 22.0933 67.1339 22.8933 67.1339 23.96C67.1339 25 67.3472 25.7733 67.7739 26.28C68.2139 26.7867 68.8672 27.04 69.7339 27.04C70.2139 27.04 70.6272 26.96 70.9739 26.8C71.3206 26.64 71.5806 26.38 71.7539 26.02H74.5739C74.2406 27.0067 73.6672 27.7867 72.8539 28.36C72.0539 28.92 71.0206 29.2 69.7539 29.2ZM76.4383 29V18.8H79.3783V21.2H79.4383V29H76.4383ZM83.2983 29V22.52C83.2983 22 83.1583 21.62 82.8783 21.38C82.6116 21.1267 82.2316 21 81.7383 21C81.3116 21 80.9183 21.1 80.5583 21.3C80.2116 21.4867 79.9383 21.76 79.7383 22.12C79.5383 22.4667 79.4383 22.88 79.4383 23.36L79.1783 21.06C79.5116 20.3133 79.9916 19.72 80.6183 19.28C81.2583 18.8267 82.0249 18.6 82.9183 18.6C83.9849 18.6 84.8116 18.9 85.3983 19.5C85.9983 20.1 86.2983 20.8533 86.2983 21.76V29H83.2983ZM90.1583 29V22.52C90.1583 22 90.0183 21.62 89.7383 21.38C89.4716 21.1267 89.0916 21 88.5983 21C88.1716 21 87.7783 21.1 87.4183 21.3C87.0716 21.4867 86.7983 21.76 86.5983 22.12C86.3983 22.4667 86.2983 22.88 86.2983 23.36L85.8383 21.06C86.1716 20.3133 86.6649 19.72 87.3183 19.28C87.9849 18.8267 88.7849 18.6 89.7183 18.6C90.8249 18.6 91.6716 18.9133 92.2583 19.54C92.8583 20.1533 93.1583 20.96 93.1583 21.96V29H90.1583ZM100.282 29.2C99.1622 29.2 98.1755 28.98 97.3222 28.54C96.4822 28.0867 95.8222 27.46 95.3422 26.66C94.8755 25.8467 94.6422 24.9133 94.6422 23.86C94.6422 22.8067 94.8755 21.8867 95.3422 21.1C95.8222 20.3133 96.4822 19.7 97.3222 19.26C98.1755 18.82 99.1622 18.6 100.282 18.6C101.416 18.6 102.402 18.82 103.242 19.26C104.096 19.7 104.756 20.3133 105.222 21.1C105.689 21.8867 105.922 22.8067 105.922 23.86C105.922 24.9133 105.682 25.8467 105.202 26.66C104.736 27.46 104.076 28.0867 103.222 28.54C102.382 28.98 101.402 29.2 100.282 29.2ZM100.282 26.84C100.749 26.84 101.169 26.72 101.542 26.48C101.929 26.24 102.236 25.9 102.462 25.46C102.689 25.0067 102.802 24.4667 102.802 23.84C102.802 22.92 102.556 22.2133 102.062 21.72C101.582 21.2133 100.989 20.96 100.282 20.96C99.5755 20.96 98.9755 21.2133 98.4822 21.72C98.0022 22.2267 97.7622 22.9333 97.7622 23.84C97.7622 24.4667 97.8755 25.0067 98.1022 25.46C98.3289 25.9 98.6289 26.24 99.0022 26.48C99.3889 26.72 99.8155 26.84 100.282 26.84ZM112.06 29.22C110.753 29.22 109.78 28.9067 109.14 28.28C108.513 27.64 108.2 26.6733 108.2 25.38V16.52L111.2 15.4V25.48C111.2 25.9333 111.326 26.2733 111.58 26.5C111.833 26.7267 112.226 26.84 112.76 26.84C112.96 26.84 113.146 26.82 113.32 26.78C113.493 26.74 113.666 26.6933 113.84 26.64V28.92C113.666 29.0133 113.42 29.0867 113.1 29.14C112.793 29.1933 112.446 29.22 112.06 29.22ZM106.3 21.08V18.8H113.84V21.08H106.3ZM120.086 29.2C118.953 29.2 117.966 28.98 117.126 28.54C116.286 28.0867 115.633 27.46 115.166 26.66C114.713 25.86 114.486 24.94 114.486 23.9C114.486 22.8467 114.713 21.9267 115.166 21.14C115.633 20.34 116.279 19.72 117.106 19.28C117.933 18.8267 118.893 18.6 119.986 18.6C121.039 18.6 121.953 18.8133 122.726 19.24C123.499 19.6667 124.099 20.26 124.526 21.02C124.953 21.78 125.166 22.6733 125.166 23.7C125.166 23.9133 125.159 24.1133 125.146 24.3C125.133 24.4733 125.113 24.64 125.086 24.8H116.246V22.82H122.666L122.146 23.18C122.146 22.3533 121.946 21.7467 121.546 21.36C121.159 20.96 120.626 20.76 119.946 20.76C119.159 20.76 118.546 21.0267 118.106 21.56C117.679 22.0933 117.466 22.8933 117.466 23.96C117.466 25 117.679 25.7733 118.106 26.28C118.546 26.7867 119.199 27.04 120.066 27.04C120.546 27.04 120.959 26.96 121.306 26.8C121.653 26.64 121.913 26.38 122.086 26.02H124.906C124.573 27.0067 123.999 27.7867 123.186 28.36C122.386 28.92 121.353 29.2 120.086 29.2ZM128.153 29.2C127.646 29.2 127.159 29.16 126.693 29.08C126.226 29.0133 125.886 28.9267 125.673 28.82V26.46C125.913 26.5533 126.199 26.6333 126.533 26.7C126.866 26.7667 127.206 26.8 127.553 26.8C128.299 26.8 128.839 26.68 129.173 26.44C129.519 26.1867 129.693 25.7333 129.693 25.08V14.6H132.773V25.22C132.773 26.5533 132.379 27.5533 131.593 28.22C130.806 28.8733 129.659 29.2 128.153 29.2ZM139.813 29.2C138.693 29.2 137.707 28.98 136.853 28.54C136.013 28.0867 135.353 27.46 134.873 26.66C134.407 25.8467 134.173 24.9133 134.173 23.86C134.173 22.8067 134.407 21.8867 134.873 21.1C135.353 20.3133 136.013 19.7 136.853 19.26C137.707 18.82 138.693 18.6 139.813 18.6C140.947 18.6 141.933 18.82 142.773 19.26C143.627 19.7 144.287 20.3133 144.753 21.1C145.22 21.8867 145.453 22.8067 145.453 23.86C145.453 24.9133 145.213 25.8467 144.733 26.66C144.267 27.46 143.607 28.0867 142.753 28.54C141.913 28.98 140.933 29.2 139.813 29.2ZM139.813 26.84C140.28 26.84 140.7 26.72 141.073 26.48C141.46 26.24 141.767 25.9 141.993 25.46C142.22 25.0067 142.333 24.4667 142.333 23.84C142.333 22.92 142.087 22.2133 141.593 21.72C141.113 21.2133 140.52 20.96 139.813 20.96C139.107 20.96 138.507 21.2133 138.013 21.72C137.533 22.2267 137.293 22.9333 137.293 23.84C137.293 24.4667 137.407 25.0067 137.633 25.46C137.86 25.9 138.16 26.24 138.533 26.48C138.92 26.72 139.347 26.84 139.813 26.84ZM153.264 29.2C152.29 29.2 151.497 28.9733 150.884 28.52C150.284 28.0667 149.93 27.4467 149.824 26.66L149.984 26.64V29H147.044V14.6H150.044V21.06L149.864 21.02C150.01 20.2733 150.397 19.6867 151.024 19.26C151.664 18.82 152.464 18.6 153.424 18.6C154.344 18.6 155.137 18.82 155.804 19.26C156.484 19.6867 157.004 20.2933 157.364 21.08C157.737 21.8667 157.924 22.7933 157.924 23.86C157.924 24.94 157.73 25.88 157.344 26.68C156.957 27.48 156.417 28.1 155.724 28.54C155.03 28.98 154.21 29.2 153.264 29.2ZM152.424 26.8C153.13 26.8 153.704 26.5467 154.144 26.04C154.584 25.5333 154.804 24.8133 154.804 23.88C154.804 22.9467 154.577 22.2333 154.124 21.74C153.684 21.2467 153.104 21 152.384 21C151.69 21 151.117 21.2533 150.664 21.76C150.224 22.2533 150.004 22.9667 150.004 23.9C150.004 24.8333 150.224 25.5533 150.664 26.06C151.117 26.5533 151.704 26.8 152.424 26.8ZM163.781 29.2C162.288 29.2 161.101 28.9 160.221 28.3C159.341 27.7 158.861 26.8733 158.781 25.82H161.461C161.528 26.2733 161.754 26.62 162.141 26.86C162.541 27.0867 163.088 27.2 163.781 27.2C164.408 27.2 164.861 27.1133 165.141 26.94C165.434 26.7533 165.581 26.4933 165.581 26.16C165.581 25.9067 165.494 25.7133 165.321 25.58C165.161 25.4333 164.861 25.3133 164.421 25.22L162.781 24.88C161.568 24.6267 160.674 24.2467 160.101 23.74C159.528 23.22 159.241 22.5533 159.241 21.74C159.241 20.7533 159.621 19.9867 160.381 19.44C161.141 18.88 162.201 18.6 163.561 18.6C164.908 18.6 165.981 18.8733 166.781 19.42C167.581 19.9533 168.021 20.7 168.101 21.66H165.421C165.368 21.3133 165.181 21.0533 164.861 20.88C164.541 20.6933 164.088 20.6 163.501 20.6C162.968 20.6 162.568 20.68 162.301 20.84C162.048 20.9867 161.921 21.2 161.921 21.48C161.921 21.72 162.028 21.9133 162.241 22.06C162.454 22.1933 162.808 22.3133 163.301 22.42L165.141 22.8C166.168 23.0133 166.941 23.4133 167.461 24C167.994 24.5733 168.261 25.2533 168.261 26.04C168.261 27.04 167.868 27.82 167.081 28.38C166.308 28.9267 165.208 29.2 163.781 29.2Z" fill="black"/>
<rect width="26" height="27" rx="12" fill="white"/>
<rect width="26" height="27" rx="12" fill="#108A00"/>
<path fill-rule="evenodd" clip-rule="evenodd" d="M23 8C14.7157 8 8 14.7157 8 23V28C8 36.2843 14.7157 43 23 43H27C35.2843 43 42 36.2843 42 28V23C42 14.7157 35.2843 8 27 8H23ZM25 13C18.3726 13 13 18.3726 13 25V26C13 32.6274 18.3726 38 25 38C31.6274 38 37 32.6274 37 26V25C37 18.3726 31.6274 13 25 13Z" fill="#108A00"/>
<mask id="mask0_33_2844" style="mask-type:alpha" maskUnits="userSpaceOnUse" x="8" y="8" width="34" height="35">
<path fill-rule="evenodd" clip-rule="evenodd" d="M23 8C14.7157 8 8 14.7157 8 23V28C8 36.2843 14.7157 43 23 43H27C35.2843 43 42 36.2843 42 28V23C42 14.7157 35.2843 8 27 8H23ZM25 13C18.3726 13 13 18.3726 13 25V26C13 32.6274 18.3726 38 25 38C31.6274 38 37 32.6274 37 26V25C37 18.3726 31.6274 13 25 13Z" fill="white"/>
</mask>
<g mask="url(#mask0_33_2844)">
<rect width="26" height="27" rx="12" fill="white"/>
<rect width="26" height="27" rx="12" fill="white"/>
</g>
</svg>
